<svg version="1.1" xmlns="http://www.w3.org/2000/svg" xmlns:xlink="http://www.w3.org/1999/xlink" width="85.76054" height="35.97082" viewBox="0,0,85.76054,35.97082"><defs><linearGradient x1="597.12057" y1="270.00013" x2="682.88017" y2="270.00013" gradientUnits="userSpaceOnUse" id="color-1"><stop offset="0.012" stop-color="#66b3e3"/><stop offset="1" stop-color="#1c75bc"/></linearGradient></defs><g transform="translate(-597.11973,-252.01459)"><g data-paper-data="{&quot;isPaintingLayer&quot;:true}" fill-rule="nonzero" stroke="none" stroke-width="1" stroke-linecap="butt" stroke-linejoin="miter" stroke-miterlimit="10" stroke-dasharray="" stroke-dashoffset="0" style="mix-blend-mode: normal"><path d="M682.88027,282.32385c0,3.12653 -3.63206,5.66156 -8.10946,5.66156h-69.54255c-4.47835,0 -8.10852,-2.53569 -8.10852,-5.66156v-24.64835c0,-3.12653 3.63018,-5.66091 8.10852,-5.66091h69.54161c4.48024,0 8.10946,2.53438 8.10946,5.66091v24.64835z" fill="url(#color-1)"/><path d="M679.66192,257.67549v24.6477c0,1.88302 -2.193,3.4147 -4.89207,3.4147h-69.54161c-2.69625,0 -4.89112,-1.53168 -4.89112,-3.4147v-24.64835c0,-1.88302 2.19488,-3.4147 4.89112,-3.4147h69.54161c2.69907,0 4.89207,1.53234 4.89207,3.41536z" fill="#bfd8ff"/><text transform="translate(607.57011,273.94125) scale(0.32844,0.32844)" font-size="40" xml:space="preserve" fill="#004bbe" fill-rule="nonzero" stroke="none" stroke-width="1" stroke-linecap="butt" stroke-linejoin="miter" stroke-miterlimit="10" stroke-dasharray="" stroke-dashoffset="0" font-family="Sans Serif" font-weight="normal" text-anchor="start" style="mix-blend-mode: normal"><tspan x="0" dy="0">ERASE ALL</tspan></text></g></g></svg>